<svg width="44" height="44" viewBox="0 0 44 44" fill="none" xmlns="http://www.w3.org/2000/svg">
  <g transform="translate(0 -0.5)">
    <path fill-rule="evenodd" clip-rule="evenodd" d="M16.0058 17.0246C21.5256 17.0213 25.9992 12.5456 25.9992 7.02504V6.3584H11.3331C8.38772 6.3584 6 8.74612 6 11.6915C6 14.6358 8.38597 17.0229 11.3299 17.0246C8.38598 17.0264 6 19.4134 6 22.3578C6 25.3032 8.38772 27.6909 11.3331 27.6909L15.9996 27.6909C10.477 27.6909 6 32.1678 6 37.6905V38.3571H20.6661C23.6115 38.3571 25.9992 35.9694 25.9992 33.024C25.9992 30.0786 23.6115 27.6909 20.6661 27.6909C23.6115 27.6909 25.9992 25.3032 25.9992 22.3578C25.9992 19.4124 23.6115 17.0246 20.6661 17.0246H16.0058ZM37.9826 6.35845C32.837 6.35845 28.6656 10.5298 28.6656 15.6755V17.6897L28.6656 17.7095L28.6653 17.7096L28.6967 38.3578C33.8423 38.35 38.0073 34.1723 37.9995 29.0266L37.9964 27.0124C37.9962 26.8453 37.9915 26.6793 37.9826 26.5144V6.35845Z" fill="black"/>
  </g>
</svg>